<svg width="231" height="72" viewBox="0 0 231 72" fill="none" xmlns="http://www.w3.org/2000/svg">
    <path d="M26.137 0.745605C35.6324 0.745605 46.556 2.42703 49.9117 5.37622C50.8385 5.98637 51.5063 6.32168 51.5063 6.88533V40.5887C51.5063 41.7625 51.3614 42.8524 50.999 43.9423C45.9251 60.7101 26.137 71.9758 26.137 71.9758C26.137 71.9758 6.34884 60.7101 1.27497 43.9423C0.912546 42.8524 0.767578 41.6786 0.767578 40.5887V6.88533C0.767578 5.9631 1.40978 5.91577 2.36222 5.37622C7.41394 2.96825 16.6416 0.745605 26.137 0.745605Z" fill="#3693FF"/>
    <path fill-rule="evenodd" clip-rule="evenodd" d="M175.76 55.2395H174.81V53.8047H177.411V59.421H176.049V58.4371H176.008C175.925 58.6831 175.76 59.011 175.554 59.216C175.223 59.503 174.81 59.544 174.439 59.544C173.778 59.544 173.366 59.421 172.953 58.97C172.499 58.4371 172.416 57.8222 172.416 57.2893V51.55C172.416 50.7711 172.581 50.1562 173.2 49.6643C173.737 49.2544 174.315 49.1724 174.81 49.1724H174.934C175.677 49.1724 176.338 49.3773 176.792 49.7873C177.081 50.0332 177.411 50.5662 177.411 51.4681V52.5749H175.76V51.55C175.76 51.2631 175.76 50.9761 175.554 50.7711C175.471 50.6892 175.306 50.5662 174.934 50.5662C174.728 50.5662 174.48 50.5662 174.274 50.8121C174.109 51.0171 174.067 51.3041 174.067 51.55V57.1253C174.067 57.3303 174.067 57.6172 174.232 57.8632C174.315 58.0272 174.563 58.1911 174.976 58.1911C175.306 58.1911 175.512 57.9862 175.554 57.9042C175.636 57.7812 175.719 57.5762 175.719 57.2073V55.2395H175.76Z" fill="#2A7DE1"/>
    <path fill-rule="evenodd" clip-rule="evenodd" d="M186.824 53.4773C187.031 53.4773 187.278 53.4773 187.443 53.3134C187.691 53.1494 187.691 52.8214 187.691 52.6574V51.6326C187.691 51.1816 187.608 51.0587 187.567 50.9357C187.402 50.7307 187.196 50.6897 187.031 50.6897H186.081V53.4363H186.824V53.4773ZM187.815 59.4215C187.567 58.9706 187.567 58.5606 187.567 58.2327V55.978C187.567 55.691 187.567 55.4041 187.319 55.1991C187.154 55.0351 186.907 55.0351 186.742 55.0351H186.081V59.4625H184.43V49.2959H187.154C188.063 49.2959 188.641 49.5829 188.888 49.9108C189.177 50.2798 189.342 50.8947 189.342 51.3456V52.4935C189.342 52.8624 189.301 53.3543 188.888 53.7233C188.723 53.8873 188.434 54.0513 188.104 54.1332V54.1742C188.186 54.2152 188.475 54.2972 188.723 54.5022C189.177 54.9121 189.218 55.4041 189.218 55.814V57.9867C189.218 58.8886 189.26 59.1756 189.673 59.3395V59.4215H187.815Z" fill="#2A7DE1"/>
    <path fill-rule="evenodd" clip-rule="evenodd" d="M198.795 58.0687C199.208 58.0687 199.456 57.8637 199.58 57.7408C199.745 57.5358 199.745 57.0438 199.745 56.8389V51.8376C199.745 51.5916 199.745 51.2226 199.58 50.9767C199.373 50.7307 199.126 50.6897 198.878 50.6897H197.97V58.0277H198.795V58.0687ZM196.318 49.2959H199.456C199.786 49.2959 200.364 49.3369 200.859 49.7878C201.396 50.3208 201.396 50.9767 201.396 51.5916V57.0029C201.396 57.5768 201.355 58.3967 200.736 58.9706C200.282 59.4215 199.704 59.4625 199.291 59.4625H196.318V49.2959Z" fill="#2A7DE1"/>
    <path d="M203.997 49.2959H202.346V59.4215H203.997V49.2959Z" fill="#2A7DE1"/>
    <path fill-rule="evenodd" clip-rule="evenodd" d="M206.557 56.0599V56.9618C206.557 57.4537 206.598 57.6587 206.639 57.7407C206.804 58.0686 207.093 58.1506 207.382 58.1506C207.547 58.1506 207.836 58.1506 208.043 57.9456C208.208 57.7817 208.208 57.4537 208.208 57.2487V56.5928C208.208 56.1829 208.043 55.8139 207.671 55.445L205.979 53.8872C205.731 53.6412 205.483 53.3953 205.277 53.1083C205.029 52.6984 204.947 52.2884 204.947 51.7965V50.9766C204.947 50.4847 205.194 50.0337 205.483 49.7058C206.02 49.2138 206.928 49.1318 207.341 49.1318H207.465C208.043 49.1318 208.703 49.2548 209.199 49.7468C209.735 50.2797 209.777 50.8946 209.777 51.3045V52.3294H208.125V51.5095C208.125 51.2635 208.125 51.0586 207.919 50.8126C207.754 50.6486 207.589 50.5666 207.341 50.5666C207.135 50.5666 206.887 50.6076 206.722 50.7716C206.557 50.9356 206.557 51.0996 206.557 51.3045V51.7555C206.557 52.1244 206.639 52.2884 206.969 52.5754L208.662 54.1332C209.199 54.6251 209.818 55.199 209.818 56.2649V57.4127C209.818 57.9046 209.777 58.4376 209.24 58.9705C208.703 59.5034 208.043 59.5444 207.465 59.5444C206.928 59.5444 206.309 59.4624 205.772 59.0935C205.029 58.5606 204.905 57.8227 204.905 57.2897V56.0189H206.557V56.0599Z" fill="#2A7DE1"/>
    <path fill-rule="evenodd" clip-rule="evenodd" d="M212.254 56.0599V56.9618C212.254 57.4537 212.295 57.6587 212.336 57.7407C212.502 58.0686 212.791 58.1506 213.08 58.1506C213.245 58.1506 213.534 58.1506 213.74 57.9456C213.905 57.7817 213.905 57.4537 213.905 57.2487V56.5928C213.905 56.1829 213.74 55.8139 213.368 55.445L211.676 53.8872C211.428 53.6412 211.18 53.3953 210.974 53.1083C210.726 52.6984 210.644 52.2884 210.644 51.7965V50.9766C210.644 50.4847 210.892 50.0337 211.18 49.7058C211.717 49.2138 212.625 49.1318 213.038 49.1318H213.162C213.74 49.1318 214.401 49.2548 214.896 49.7468C215.433 50.2797 215.474 50.8946 215.474 51.3045V52.3294H213.823V51.5095C213.823 51.2635 213.823 51.0586 213.616 50.8126C213.451 50.6486 213.286 50.5666 213.038 50.5666C212.832 50.5666 212.584 50.6076 212.419 50.7716C212.254 50.9356 212.254 51.0996 212.254 51.3045V51.7555C212.254 52.1244 212.336 52.2884 212.667 52.5754L214.359 54.1332C214.896 54.6251 215.515 55.199 215.515 56.2649V57.4127C215.515 57.9046 215.474 58.4376 214.937 58.9705C214.401 59.5034 213.74 59.5444 213.162 59.5444C212.625 59.5444 212.006 59.4624 211.469 59.0935C210.726 58.5606 210.603 57.8227 210.603 57.2897V56.0189H212.254V56.0599Z" fill="#2A7DE1"/>
    <path fill-rule="evenodd" clip-rule="evenodd" d="M216.424 59.4215V49.2959H218.075V53.6003H218.116L219.85 49.2959H221.543L219.561 54.0922L221.791 59.4215H220.098L218.158 54.5432H218.075V59.4215H216.424Z" fill="#2A7DE1"/>
    <path fill-rule="evenodd" clip-rule="evenodd" d="M223.607 59.4215V54.8301L221.708 49.2959H223.442L224.268 52.4115L224.433 52.8214L224.557 52.4115L225.382 49.2959H227.157L225.258 54.8301V59.4215H223.607Z" fill="#2A7DE1"/>
    <path fill-rule="evenodd" clip-rule="evenodd" d="M180.962 49.1729H180.838C180.302 49.1729 179.6 49.2958 179.063 49.7468C178.403 50.3207 178.361 50.9356 178.361 51.5095V57.2078C178.361 57.7817 178.403 58.3966 179.063 58.9705C179.641 59.4625 180.384 59.5444 180.921 59.5444C181.458 59.5444 182.201 59.4625 182.779 58.9705C183.439 58.3966 183.48 57.7817 183.48 57.2078V51.5095C183.48 50.9356 183.439 50.3207 182.779 49.7468C182.201 49.2548 181.499 49.1729 180.962 49.1729ZM180.013 51.5505C180.013 51.5095 180.013 51.4685 180.013 51.4275C180.013 51.1816 180.136 50.9766 180.26 50.8126C180.425 50.6487 180.632 50.5257 180.838 50.5257H180.88H180.921C181.169 50.5257 181.375 50.6487 181.54 50.8536C181.705 51.0176 181.788 51.2636 181.788 51.5505V54.3382V57.1258C181.788 57.4127 181.705 57.6587 181.54 57.8227C181.375 57.9867 181.169 58.1096 180.921 58.1506H180.88H180.838C180.591 58.1506 180.384 58.0277 180.26 57.8637C180.136 57.6997 180.013 57.4947 180.013 57.2488C180.013 57.2078 180.013 57.1668 180.013 57.1668V54.3791V51.5505Z" fill="#2A7DE1"/>
    <path fill-rule="evenodd" clip-rule="evenodd" d="M192.851 49.1729H192.727C192.19 49.1729 191.488 49.2958 190.952 49.7468C190.291 50.3207 190.25 50.9356 190.25 51.5095V57.2078C190.25 57.7817 190.291 58.3966 190.952 58.9705C191.53 59.4625 192.273 59.5444 192.81 59.5444C193.346 59.5444 194.089 59.4625 194.667 58.9705C195.328 58.3966 195.369 57.7817 195.369 57.2078V51.5095C195.369 50.9356 195.328 50.3207 194.667 49.7468C194.048 49.2548 193.388 49.1729 192.851 49.1729ZM191.901 51.5505C191.901 51.5095 191.901 51.4685 191.901 51.4275C191.901 51.1816 192.025 50.9766 192.149 50.8126C192.314 50.6487 192.521 50.5257 192.727 50.5257H192.768H192.81C193.057 50.5257 193.264 50.6487 193.429 50.8536C193.594 51.0176 193.676 51.2636 193.676 51.5505V54.3382V57.1258C193.676 57.4127 193.594 57.6587 193.429 57.8227C193.264 57.9867 193.057 58.1096 192.81 58.1506H192.768H192.727C192.479 58.1506 192.273 58.0277 192.149 57.8637C192.025 57.6997 191.901 57.4947 191.901 57.2488C191.901 57.2078 191.901 57.1668 191.901 57.1668V54.3791V51.5505Z" fill="#2A7DE1"/>
    <path d="M73.3636 15.7808H68.8066V45.4077H73.3636V15.7808Z" fill="#1D3461"/>
    <path fill-rule="evenodd" clip-rule="evenodd" d="M81.3587 33.3672H85.3139C89.183 33.3672 91.6765 29.3543 91.6765 24.4877C91.6765 19.7064 89.269 15.8643 85.3999 15.8643H76.8018V45.4912H81.3587V33.3672ZM81.3587 20.1333H83.6802C86.0017 20.1333 87.1195 21.6701 87.1195 24.4877C87.1195 27.3052 86.0017 28.9274 83.6802 28.9274H81.3587V20.1333Z" fill="#1D3461"/>
    <path fill-rule="evenodd" clip-rule="evenodd" d="M114.033 25.0858V24.1466C114.033 18.17 111.453 15.1816 106.896 15.1816C102.769 15.1816 99.8458 17.9992 99.8458 22.8659C99.8458 26.1103 101.05 28.5863 103.457 30.4647L107.498 33.7092C109.218 35.0752 109.992 36.1852 109.992 38.1489C109.992 40.0273 109.046 41.4788 107.326 41.4788C105.607 41.4788 103.973 40.3688 103.973 36.2706V35.1606H99.5879V36.2706C99.5879 42.3326 102.167 46.0039 107.24 46.0039C112.055 46.0039 114.635 42.8449 114.635 37.6367C114.635 33.1969 113.087 31.4039 110.507 29.2694L105.864 25.4273C104.919 24.6589 104.317 23.8051 104.317 22.0974C104.317 20.4752 105.435 19.6214 106.724 19.6214C108.53 19.6214 109.562 21.0729 109.562 24.6589V25.0004H114.033V25.0858Z" fill="#1D3461"/>
    <path fill-rule="evenodd" clip-rule="evenodd" d="M117.559 15.7793V45.4063H130.456V40.8811H122.116V31.66H129.682V27.1349H122.116V20.3045H130.456V15.7793H117.559Z" fill="#1D3461"/>
    <path fill-rule="evenodd" clip-rule="evenodd" d="M147.91 25.4273V23.8904C147.91 18.4261 145.416 15.1816 140.773 15.1816C135.786 15.1816 133.293 18.4261 133.293 25.3419V36.0998C133.293 41.3934 134.755 46.0039 140.687 46.0039C146.362 46.0039 147.91 41.3934 147.91 36.0144V34.7337H143.353V36.356C143.353 40.1981 142.493 41.4788 140.601 41.4788C138.71 41.4788 137.85 40.1981 137.85 36.356V24.7442C137.85 20.9875 138.71 19.7068 140.601 19.7068C142.493 19.7068 143.267 20.9875 143.267 24.7442V25.4273H147.91Z" fill="#1D3461"/>
    <path fill-rule="evenodd" clip-rule="evenodd" d="M151.263 15.7793V37.4659C151.263 42.8449 153.584 46.0039 158.915 46.0039C164.246 46.0039 166.481 42.8449 166.481 37.4659V15.7793H161.924V36.6121C161.924 39.9419 161.15 41.3934 158.915 41.3934C156.765 41.3934 155.82 39.8565 155.82 36.6121V15.7793H151.263Z" fill="#1D3461"/>
    <path fill-rule="evenodd" clip-rule="evenodd" d="M174.478 32.8554H177.831C179.895 32.8554 180.582 34.9045 180.582 37.1244V40.5396C180.582 42.4179 180.754 44.4671 181.7 45.4063H186.257V44.4671C185.225 44.4671 185.139 42.2472 185.139 39.515V35.7583C185.139 33.6238 184.452 31.1477 181.872 30.4647C184.022 30.1232 185.483 27.8179 185.483 23.4635C185.483 19.1945 183.162 15.7793 179.465 15.7793H170.007V45.4063H174.564V32.8554H174.478ZM174.478 20.1337H177.401C179.465 20.1337 180.754 20.9875 180.754 24.2319C180.754 27.5618 179.121 28.5863 177.573 28.5863H174.478V20.1337Z" fill="#1D3461"/>
    <path d="M193.307 15.7793H188.75V45.4063H193.307V15.7793Z" fill="#1D3461"/>
    <path fill-rule="evenodd" clip-rule="evenodd" d="M205.946 20.3045H211.62V15.7793H195.714V20.3045H201.389V45.4063H205.946V20.3045Z" fill="#1D3461"/>
    <path fill-rule="evenodd" clip-rule="evenodd" d="M212.738 15.7793L219.015 32.6846V45.4063H223.572V32.6846L230.106 15.7793H224.948L221.336 27.1349L218.155 15.7793H212.738Z" fill="#1D3461"/>
    <path d="M33.7986 48.0039H18.873V51.9877H33.7986V48.0039Z" fill="#E5E5E5"/>
    <path d="M160.907 55.1426H68.8066V59.5444H160.907V55.1426Z" fill="#C9C9C9"/>
    <path fill-rule="evenodd" clip-rule="evenodd" d="M24.9524 43.8326H25.6629L26.4525 43.6757L27.3209 43.3619L28.0315 42.8128L28.4263 42.3422L28.5842 42.1853L28.821 41.7931L29.1368 41.1655L29.3737 40.6164H29.4526L30.1174 43.4404H33.4003V27.0458H25.8998C25.8998 27.0458 25.7674 28.2888 26.0449 29.0853C26.3224 29.8818 27.3209 31.1248 27.3209 31.1248H28.5842V36.8511L28.5052 37.5571L28.4263 38.1847L28.2684 38.5769L28.1105 38.8907L27.8736 39.2044L27.4788 39.4398L27.0051 39.6751L26.3735 39.7535L25.505 39.6751L24.9524 39.4398L24.4787 39.126L24.1628 38.8122L23.926 38.2631L23.7681 37.714V37.1649V20.4565V19.9074L23.847 19.3583L24.0049 18.8092L24.3208 18.3386L24.7155 17.9464L25.2682 17.711L25.7419 17.6326H25.8998H26.3735L26.8472 17.711L27.3999 17.8679L27.7157 18.0248L28.0315 18.2601L28.3473 18.7308L28.5052 19.2799L28.5842 19.9074V20.4565V23.3589H33.4003V20.2212L33.2424 18.417L32.8476 17.005L32.2949 15.9853L31.6633 15.2793L30.558 14.4164L29.2947 13.9458L27.8736 13.632L26.3735 13.4751H25.8998L24.7155 13.5535L23.5312 13.7889L22.3469 14.2595L21.1627 14.9655L20.0573 16.0637L19.3468 17.3188L19.031 18.8092L18.873 20.4565V37.2434L18.952 38.42L19.1889 39.6751L19.6626 40.9302L20.4521 42.1068L21.3995 42.9697L22.4259 43.5188L23.5312 43.7541H23.7681L24.7155 43.8326H24.9524Z" fill="#E5E5E5"/>
    <path d="M164.842 55.7705H165.293C165.671 55.7705 165.799 55.9595 165.799 56.3313C165.799 56.7093 165.647 56.9288 165.281 56.9288H164.842V55.7705ZM164.842 57.5567H165.378C165.689 57.5567 165.842 57.8005 165.842 58.2333C165.842 58.7271 165.689 58.9161 165.378 58.9161H164.842V57.5567ZM164.007 59.544H165.689C166.366 59.544 166.695 59.0014 166.695 58.2394C166.695 57.6664 166.476 57.3555 166.043 57.1787C166.409 57.1055 166.634 56.6361 166.634 56.2155C166.634 55.6547 166.323 55.1426 165.549 55.1426H164.007V59.544Z" fill="#1D3461"/>
    <path d="M166.984 55.1426L168.142 57.6542V59.544H168.977V57.6542L170.166 55.1426H169.221L168.557 56.8373L167.971 55.1426H166.984Z" fill="#1D3461"/>
</svg>
